<svg width="21" height="21" viewBox="0 0 21 21" fill="none" xmlns="http://www.w3.org/2000/svg">
<path fill-rule="evenodd" clip-rule="evenodd" d="M10.3977 0C10.7424 0 11.073 0.136934 11.3168 0.380678C11.5605 0.624422 11.6974 0.95501 11.6974 1.29972V9.09801H19.4957C19.8404 9.09801 20.171 9.23495 20.4148 9.47869C20.6585 9.72243 20.7955 10.053 20.7955 10.3977C20.7955 10.7424 20.6585 11.073 20.4148 11.3168C20.171 11.5605 19.8404 11.6974 19.4957 11.6974H11.6974V19.4957C11.6974 19.8404 11.5605 20.171 11.3168 20.4148C11.073 20.6585 10.7424 20.7955 10.3977 20.7955C10.053 20.7955 9.72243 20.6585 9.47869 20.4148C9.23495 20.171 9.09801 19.8404 9.09801 19.4957V11.6974H1.29972C0.95501 11.6974 0.624422 11.5605 0.380678 11.3168C0.136934 11.073 0 10.7424 0 10.3977C0 10.053 0.136934 9.72243 0.380678 9.47869C0.624422 9.23495 0.95501 9.09801 1.29972 9.09801H9.09801V1.29972C9.09801 0.95501 9.23495 0.624422 9.47869 0.380678C9.72243 0.136934 10.053 0 10.3977 0Z" fill="black"/>
</svg>
